<?xml version="1.0" encoding="UTF-8"?>
<!DOCTYPE svg PUBLIC "-//W3C//DTD SVG 1.1//EN" "http://www.w3.org/Graphics/SVG/1.1/DTD/svg11.dtd">
<!-- Creator: CorelDRAW X7 -->
<svg xmlns="http://www.w3.org/2000/svg" xml:space="preserve" width="25.3998mm" height="25.3998mm" version="1.1" style="shape-rendering:geometricPrecision; text-rendering:geometricPrecision; image-rendering:optimizeQuality; fill-rule:evenodd; clip-rule:evenodd"
viewBox="0 0 2540 2540"
 xmlns:xlink="http://www.w3.org/1999/xlink">
 <defs>
  <style type="text/css">
   <![CDATA[
    .fil1 {fill:#FEFEFE}
    .fil0 {fill:#E62129}
   ]]>
  </style>
 </defs>
 <g id="Layer_x0020_1">
  <metadata id="CorelCorpID_0Corel-Layer"/>
  <rect class="fil0" width="2540" height="2540"/>
  <g id="_1443036854352">
   <g>
    <polygon class="fil1" points="115,963 335,963 335,1034 265,1034 265,1226 185,1226 185,1034 115,1034 "/>
    <path class="fil1" d="M462 1146l36 80 91 0 -45 -94c25,-16 42,-45 42,-77l0 0c0,-51 -41,-92 -91,-92l-51 0 -26 0 -54 0 0 261 80 0 0 -78 18 0zm-18 -113l36 0c13,0 24,11 24,24l0 0c0,13 -11,24 -24,24l-36 0 0 -48z"/>
    <path class="fil1" d="M636 1226l-40 0 155 -272 157 270 -41 0 -115 -201 -116 203zm66 -2l-42 0 91 -156 91 158c0,0 -39,0 -39,0 0,0 -52,-93 -52,-93l-49 91z"/>
    <polygon class="fil1" points="996,1226 915,1226 915,964 978,964 1067,1080 1067,964 1150,964 1150,1226 1088,1226 997,1105 "/>
    <path class="fil1" d="M1383 991l-39 57c0,0 -37,-29 -64,-28 0,0 -13,0 -15,12 -2,11 21,17 21,17 0,0 5,2 22,7 17,4 48,16 64,34 16,18 16,48 16,48 -1,62 -49,88 -104,88 -41,-1 -83,-18 -116,-49l45 -54c0,0 29,25 48,31 10,3 45,10 43,-13 0,-10 -19,-15 -19,-15 0,0 -33,-8 -51,-15 -38,-15 -57,-44 -51,-85 4,-34 28,-63 70,-72 39,-8 96,3 130,37z"/>
    <path class="fil1" d="M1423 967l40 0 0 32c15,-21 38,-36 61,-36l11 0c39,0 60,21 72,47 12,-27 43,-47 74,-47l11 0c39,0 74,26 84,69 1,4 3,21 3,24l0 170 -40 -1 0 -139c0,-32 6,-88 -59,-86 -41,1 -57,33 -57,70l0 150 0 3 0 3 -1 0 0 0 -9 0 -1 0 0 0 -31 -1 0 -120c0,-32 9,-106 -58,-105 -41,0 -57,33 -57,87l0 127 0 9 0 2 -3 0 -9 0 -10 0 -21 0 0 -258z"/>
    <path class="fil1" d="M1936 963c37,0 71,17 94,43l0 -40 41 0 0 256 -41 0 0 -39c-23,26 -57,43 -94,43 -69,0 -126,-59 -126,-131 0,-73 57,-132 126,-132zm7 39c50,0 91,41 91,93 0,51 -41,93 -91,93 -51,0 -91,-42 -91,-93 0,-52 40,-93 91,-93z"/>
    <path class="fil1" d="M2113 966l41 0 0 40c19,-26 49,-43 83,-43l25 0c1,0 2,0 2,0l0 35 -18 0c-51,0 -93,39 -92,91l0 133 -20 0 -21 0 0 -256z"/>
    <path class="fil1" d="M2368 928l0 35 54 0 0 35 -54 0 0 135c0,32 25,58 57,59l0 30 -15 0c-46,0 -83,-37 -83,-83l0 -141 -34 0 0 -35 34 0 0 -35 41 0z"/>
   </g>
   <path class="fil1" d="M510 1349c-46,0 -83,41 -84,92l0 0 0 0 0 0 0 0 0 0 0 0 0 0 0 0 0 0 0 0 0 0 0 0 0 0 0 0 0 0 0 0 0 0 0 1 0 0 0 0 0 0 0 0 0 0 0 0 0 0 0 0 0 0 0 0 0 0 0 0 0 0 0 0 0 0 0 0 0 0 0 0 0 0 0 0 0 0 0 0 0 0 0 0 0 0 0 0 0 0 0 1 0 0 0 0 0 0 0 0 0 0 0 0 0 0 0 0 0 0 0 0 0 0 0 0 0 0 0 0 0 0 0 0 0 0 0 0 0 0 0 0 0 0 0 0 0 0 0 0 0 0 0 0 0 0 0 0 0 0 0 0 0 0 0 0 0 0 0 0 0 0 0 0 0 0 0 0 0 1 0 0 0 0 0 0 0 0 0 0 0 0 0 0 0 0 0 0 0 0 0 0 0 0 0 0 0 0 0 0 0 0 0 0 0 0 0 0 0 0 0 0 0 0 0 0 0 0 0 0 0 0 0 0 0 0 0 1 0 0 0 0 0 0 0 0 0 0 0 0 0 0 0 0 0 0c1,51 38,92 84,92 23,0 44,-9 58,-27 17,-22 10,-48 -10,-48 -18,0 -27,24 -12,36 -30,35 -79,11 -79,-53l0 0 0 -2 0 0 0 0 0 0 0 0 0 0 0 0 0 0 0 0 0 0 0 0 0 0 0 0 0 0 0 0 0 0 0 0 0 0 0 0 0 0 0 0 0 0 0 0 0 0 0 0 0 0 0 -1 0 0 0 0 0 0 0 -1 0 0c0,-65 49,-88 79,-54 -15,12 -6,37 12,37 20,0 27,-27 10,-48 -14,-18 -35,-27 -58,-27z"/>
   <path class="fil1" d="M707 1441l0 12 0 49c0,7 5,13 12,13l6 0c-1,12 -12,21 -24,21l0 0c-10,0 -19,-7 -22,-16 -5,5 -11,8 -11,8 0,0 -23,14 -47,4 -21,-8 -26,-26 -26,-33 -2,-18 9,-36 26,-42 30,-10 53,0 53,0l0 -10 0 -6c0,-3 0,-6 0,-6 -3,-12 -14,-14 -22,-14 -7,0 -13,2 -15,2 1,2 1,4 1,7 0,9 -7,17 -16,17 -10,0 -17,-8 -17,-17 0,-23 33,-29 51,-30 18,0 50,3 51,41zm-32 39l0 20c0,0 -10,13 -27,12 -17,-2 -18,-19 -18,-19 0,0 -3,-18 18,-21 22,-3 27,8 27,8z"/>
   <path class="fil1" d="M832 1418c0,12 -7,21 -17,21 -8,0 -14,-5 -17,-13 -1,0 -10,3 -14,21 0,0 0,3 0,5 0,2 0,47 0,47 0,0 -1,10 6,13 0,0 3,2 6,2 3,1 6,3 7,7 0,3 0,10 -16,12 -15,1 -35,2 -46,-4 -6,-3 -6,-13 2,-15 3,-1 8,-3 10,-12l0 -60c0,-5 -2,-13 -7,-14 -1,0 -3,0 -4,0 -3,0 -7,1 -8,-2 -1,-8 3,-15 9,-18 5,-3 13,-6 20,-6 9,0 17,7 18,16l2 0c0,0 8,-14 22,-17 11,-3 27,3 27,17z"/>
   <path class="fil1" d="M939 1418c0,12 -7,21 -17,21 -8,0 -14,-5 -17,-13 -2,0 -11,3 -14,21 0,0 -1,3 -1,5 0,2 0,47 0,47 0,0 0,10 7,13 0,0 3,2 6,2 3,1 6,3 7,7 0,3 0,10 -16,12 -15,1 -35,2 -46,-4 -6,-3 -6,-13 2,-15 2,-1 8,-3 9,-12l0 -60c1,-5 -1,-13 -6,-14 -1,0 -3,0 -4,0 -3,0 -7,1 -8,-2 -1,-8 3,-15 9,-18 5,-3 13,-6 20,-6 9,0 17,7 18,16l2 0c0,0 8,-14 22,-17 11,-3 27,3 27,17z"/>
   <path class="fil1" d="M1554 1418c0,12 -8,21 -17,21 -8,0 -15,-5 -17,-13 -2,0 -11,3 -14,21 0,0 -1,3 -1,5 0,2 0,47 0,47 0,0 0,10 7,13 0,0 3,2 6,2 3,1 6,3 6,7 1,3 0,10 -15,12 -15,1 -36,2 -46,-4 -7,-3 -7,-13 2,-15 2,-1 8,-3 9,-12l0 -60c1,-5 -1,-13 -7,-14 -1,0 -2,0 -4,0 -2,0 -7,1 -7,-2 -2,-8 3,-15 9,-18 5,-3 12,-6 20,-6 9,0 16,7 18,16l1 0c0,0 8,-14 22,-17 12,-3 28,3 28,17z"/>
   <path class="fil1" d="M1224 1400c37,0 67,31 67,68 0,37 -30,67 -67,67 -37,0 -67,-30 -67,-67 0,-37 30,-68 67,-68zm-1 20c20,0 31,21 31,47 1,26 -11,47 -29,47 -18,0 -31,-21 -32,-47 0,-26 10,-46 30,-47z"/>
   <path class="fil1" d="M1315 1487l0 -44c0,-4 -2,-12 -8,-14 -1,0 -1,0 -3,0 -2,0 -7,1 -8,-2 -2,-8 3,-15 10,-19 6,-3 14,-6 22,-6 10,1 18,6 20,17l0 62c0,10 4,25 15,28 0,0 9,1 15,-1 6,-2 17,-10 17,-33l0 -32c0,-4 -1,-12 -7,-14 -1,0 -2,0 -3,0 -3,0 -8,1 -9,-2 -1,-8 4,-15 11,-19 5,-3 13,-6 22,-6 10,1 18,6 19,17l0 75c0,12 4,15 4,15 7,5 12,1 12,1 3,2 3,6 3,6 0,11 -14,16 -14,16 0,0 -11,4 -23,3 -10,-1 -13,-13 -14,-16 0,-1 0,-1 0,-1 0,0 -13,16 -34,17 0,0 -4,1 -8,0 -27,-1 -39,-24 -39,-48z"/>
   <path class="fil1" d="M1074 1515c0,0 -3,3 -3,7 0,4 5,10 14,10 9,1 22,3 47,-1 0,0 8,-2 9,-9 0,0 0,-6 -3,-7 -3,-1 -7,-1 -10,-2 -4,-1 -8,-6 -8,-15 0,-8 0,-73 0,-73l14 0c0,0 15,1 19,-10 0,0 2,-6 -2,-11l-31 0 0 -16c0,-3 -2,-20 6,-27 7,-5 20,-3 22,0 -1,2 -2,5 -2,8 0,10 8,18 17,18 6,0 11,-2 14,-6 5,-6 5,-15 1,-21 -21,-35 -90,-25 -92,25 0,4 0,7 0,11l0 8 -9 0c-5,0 -10,4 -10,10 0,0 -1,6 1,9 0,0 19,0 19,0 0,0 0,75 0,75 0,0 0,9 -4,13 -4,3 -5,3 -9,4z"/>
   <path class="fil1" d="M1005 1400c11,0 22,3 31,8 1,0 34,22 17,60l-79 0c0,0 -1,24 20,35 20,10 41,1 41,1 0,0 8,-4 13,-11 0,0 15,8 -1,28 -9,10 -26,15 -42,15 -37,0 -67,-30 -67,-68 0,-38 30,-68 67,-68zm18 50l-50 0c0,0 2,-25 22,-29 20,-3 27,11 27,11 0,0 5,11 1,18z"/>
   <path class="fil1" d="M1819 1459l0 0zm306 -1l-122 -132 -19 -20c3,3 6,7 9,11 29,46 17,102 -17,102 -32,0 -46,-52 -21,-77 -51,-72 -135,-23 -136,112l0 0 0 4 0 0 0 0 0 0 0 0 0 0 0 0 0 0 0 0 0 1 0 0 0 0 0 0 0 0 0 0 0 0 0 0 0 0 0 0 0 0 0 0 0 0 0 1 0 0 0 0 0 0 0 0 0 0 0 3 0 0c1,136 85,185 136,113 -25,-26 -11,-77 21,-77 34,0 46,56 17,101 -3,5 -6,9 -9,12l19 -20 122 -132 1 -1 -1 -1z"/>
   <path class="fil1" d="M1802 1318c-61,63 -61,219 0,282l-152 -140 -1 -1 1 -1 152 -140z"/>
  </g>
 </g>
</svg>
